<!-- Generated by IcoMoon.io -->
<svg version="1.1" xmlns="http://www.w3.org/2000/svg" width="30" height="32" viewBox="0 0 30 32">
<title>Group-31</title>
<path fill="#87eaf2" d="M6.776 0h16.565c3.743 0 6.776 3.034 6.776 6.776v18.447c0 3.743-3.034 6.776-6.776 6.776h-16.565c-3.743 0-6.776-3.034-6.776-6.776v-18.447c0-3.743 3.034-6.776 6.776-6.776z"></path>
<path fill="#334e68" d="M20.704 28.798h-11.229c-0.004 0-0.010 0-0.015 0-0.646 0-1.17-0.52-1.178-1.164v-23.43c-0-0.003-0-0.006-0-0.009 0-0.654 0.53-1.183 1.183-1.183 0.003 0 0.006 0 0.010 0h11.229c0.645 0.007 1.165 0.532 1.165 1.178 0 0.005-0 0.010-0 0.016v-0.001 23.429c-0.004 0.642-0.523 1.161-1.164 1.165h-0z"></path>
<path fill="#fff" d="M20.261 26.996h-10.37c-0.656-0.005-1.187-0.536-1.192-1.192v-20.851c0.005-0.657 0.536-1.187 1.192-1.192h10.342c0.657 0.005 1.187 0.536 1.192 1.192v20.879c-0.004 0.641-0.523 1.16-1.164 1.164h-0z"></path>
<path fill="#000" d="M15.63 4.897c0 0.306-0.248 0.555-0.555 0.555s-0.555-0.248-0.555-0.555c0-0.306 0.248-0.555 0.555-0.555s0.555 0.248 0.555 0.555z"></path>
<path fill="#fcfcfc" d="M15.214 4.897c0 0.077-0.062 0.139-0.139 0.139s-0.139-0.062-0.139-0.139c0-0.077 0.062-0.139 0.139-0.139s0.139 0.062 0.139 0.139z"></path>
<path fill="#334e68" d="M16.213 15.017c0.135-0.088 0.3-0.14 0.478-0.14 0.017 0 0.034 0.001 0.051 0.001l-0.002-0 2.024-2.024-1.137-1.137-2.024 2.024c0.004 0.028 0.006 0.060 0.006 0.092 0 0.164-0.054 0.315-0.146 0.437l0.001-0.002z"></path>
<path fill="#334e68" d="M12.663 17.485l-0.055-0.083-0.388 0.333-0.638 0.997 0.166 0.166 0.998-0.638 0.333-0.388-0.083-0.055 1.275-1.303-0.305-0.305z"></path>
<path fill="#334e68" d="M14.438 13.909c0.035-0.125 0.056-0.269 0.056-0.418 0-0.884-0.716-1.6-1.6-1.6-0.14 0-0.277 0.018-0.406 0.052l0.011-0.002 0.887 0.887-0.222 0.887-0.887 0.222-0.888-0.886c-0.032 0.12-0.051 0.258-0.051 0.4 0 0.878 0.712 1.589 1.589 1.589 0.173 0 0.34-0.028 0.497-0.079l-0.011 0.003 3.689 3.689c0.134 0.137 0.321 0.222 0.527 0.222s0.393-0.085 0.527-0.222l0-0c0.141-0.132 0.229-0.319 0.229-0.527s-0.088-0.395-0.229-0.527l-0-0zM17.682 18.567c-0.153 0-0.277-0.124-0.277-0.277s0.124-0.277 0.277-0.277c0.153 0 0.277 0.124 0.277 0.277v0c0 0.005 0 0.011 0 0.016 0 0.144-0.117 0.261-0.261 0.261-0.006 0-0.011-0-0.017-0.001l0.001 0z"></path>
</svg>
